<svg width="186" height="42" viewBox="0 0 186 42" fill="none" xmlns="http://www.w3.org/2000/svg">
<path d="M4.5 4.5H41.5V41.5H4.5V4.5Z" stroke="white"/>
<path d="M0 0H38V38H0V0Z" fill="white"/>
<path d="M0 0H38V38H0V0Z" fill="white"/>
<path d="M7.979 27.3596L16.1351 10.6396H19.139L10.9829 27.3596H7.979Z" fill="#343233"/>
<path d="M23.2864 18L21.7387 16.8424L22.9523 15.1421L21 14.4548L21.598 12.5917L23.5327 13.261V11H25.4673V13.261L27.402 12.5917L28 14.4548L26.0477 15.1421L27.2613 16.8424L25.7136 18L24.5 16.2997L23.2864 18Z" fill="#343233"/>
<path d="M58.75 26.7959C58.7988 27.1182 58.9258 27.4258 59.1309 27.7188C59.3359 28.002 59.5898 28.2266 59.8926 28.3926C60.1855 28.5684 60.459 28.6953 60.7129 28.7734C60.9766 28.8516 61.2793 28.8906 61.6211 28.8906C61.8945 28.8906 62.0557 28.8857 62.1045 28.876C62.7783 28.8271 63.3008 28.6514 63.6719 28.3486C64.0527 28.0459 64.2432 27.6455 64.2432 27.1475C64.2432 26.6885 64.0723 26.293 63.7305 25.9609C63.3984 25.6289 62.9492 25.3994 62.3828 25.2725L60.4639 24.8184C59.165 24.4766 58.208 23.9785 57.5928 23.3242C56.9873 22.6699 56.6846 21.835 56.6846 20.8193L56.7139 20.2627C56.7725 19.6084 57.0264 19.0078 57.4756 18.4609C57.9346 17.9141 58.5303 17.4795 59.2627 17.1572C59.9951 16.8447 60.7666 16.6885 61.5771 16.6885C62.8564 16.6885 63.9307 16.9863 64.7998 17.582C65.2295 17.8652 65.5664 18.2852 65.8105 18.8418C66.0645 19.3887 66.2207 20.0381 66.2793 20.79L63.8184 20.6436C63.75 20.1455 63.5352 19.7598 63.1738 19.4863C62.8125 19.2031 62.3486 19.0615 61.7822 19.0615C61.2451 19.0615 60.7568 19.1836 60.3174 19.4277C59.8877 19.6621 59.624 19.96 59.5264 20.3213C59.4678 20.5264 59.4385 20.7656 59.4385 21.0391C59.4385 21.1953 59.4775 21.3271 59.5557 21.4346C59.7705 21.8936 60.3223 22.25 61.2109 22.5039L63.2764 23.0166C65.6982 23.6221 66.9092 24.9844 66.9092 27.1035C66.9092 27.9141 66.6699 28.6416 66.1914 29.2861C65.7227 29.9209 65.0684 30.4141 64.2285 30.7656C63.3984 31.1172 62.4805 31.293 61.4746 31.293C60.5762 31.293 59.7461 31.1172 58.9844 30.7656C58.2227 30.4141 57.5928 29.9014 57.0947 29.2275C56.8701 28.9248 56.7041 28.5635 56.5967 28.1436C56.4893 27.7236 56.4258 27.2256 56.4062 26.6494L58.75 26.7959ZM73.1934 9.52539V31H70.4688V9.36426L73.1934 9.52539ZM76.8262 23.9834C76.8262 22.5771 77.1436 21.3076 77.7783 20.1748C78.4229 19.0322 79.2969 18.1631 80.4004 17.5674C81.4746 16.9814 82.6562 16.6885 83.9453 16.6885C85.0098 16.6885 85.9863 16.9033 86.875 17.333C87.7637 17.7627 88.4229 18.3486 88.8525 19.0908V16.8496H91.5625V31H89.292L88.8525 28.8467C88.4131 29.5986 87.7441 30.1943 86.8457 30.6338C85.957 31.0732 84.9902 31.293 83.9453 31.293C82.6367 31.293 81.4404 30.9854 80.3564 30.3701C79.2725 29.7451 78.4131 28.876 77.7783 27.7627C77.1436 26.6396 76.8262 25.3799 76.8262 23.9834ZM79.624 23.9541C79.624 24.8232 79.834 25.6143 80.2539 26.3271C80.6738 27.04 81.25 27.6016 81.9824 28.0117C82.7051 28.4219 83.4863 28.627 84.3262 28.627C85.1855 28.627 85.957 28.4365 86.6406 28.0557C87.3242 27.665 87.8613 27.1182 88.252 26.415C88.6328 25.7119 88.8232 24.8916 88.8232 23.9541C88.8232 23.0459 88.5986 22.2256 88.1494 21.4932C87.71 20.7607 87.124 20.2139 86.3916 19.8525C86.04 19.6768 85.7031 19.5498 85.3809 19.4717C85.0586 19.3936 84.707 19.3545 84.3262 19.3545C83.4668 19.3545 82.6758 19.5498 81.9531 19.9404C81.2402 20.3311 80.6738 20.873 80.2539 21.5664C79.834 22.2598 79.624 23.0557 79.624 23.9541ZM97.5977 26.7959C97.6465 27.1182 97.7734 27.4258 97.9785 27.7188C98.1836 28.002 98.4375 28.2266 98.7402 28.3926C99.0332 28.5684 99.3066 28.6953 99.5605 28.7734C99.8242 28.8516 100.127 28.8906 100.469 28.8906C100.742 28.8906 100.903 28.8857 100.952 28.876C101.626 28.8271 102.148 28.6514 102.52 28.3486C102.9 28.0459 103.091 27.6455 103.091 27.1475C103.091 26.6885 102.92 26.293 102.578 25.9609C102.246 25.6289 101.797 25.3994 101.23 25.2725L99.3115 24.8184C98.0127 24.4766 97.0557 23.9785 96.4404 23.3242C95.835 22.6699 95.5322 21.835 95.5322 20.8193L95.5615 20.2627C95.6201 19.6084 95.874 19.0078 96.3232 18.4609C96.7822 17.9141 97.3779 17.4795 98.1104 17.1572C98.8428 16.8447 99.6143 16.6885 100.425 16.6885C101.704 16.6885 102.778 16.9863 103.647 17.582C104.077 17.8652 104.414 18.2852 104.658 18.8418C104.912 19.3887 105.068 20.0381 105.127 20.79L102.666 20.6436C102.598 20.1455 102.383 19.7598 102.021 19.4863C101.66 19.2031 101.196 19.0615 100.63 19.0615C100.093 19.0615 99.6045 19.1836 99.165 19.4277C98.7354 19.6621 98.4717 19.96 98.374 20.3213C98.3154 20.5264 98.2861 20.7656 98.2861 21.0391C98.2861 21.1953 98.3252 21.3271 98.4033 21.4346C98.6182 21.8936 99.1699 22.25 100.059 22.5039L102.124 23.0166C104.546 23.6221 105.757 24.9844 105.757 27.1035C105.757 27.9141 105.518 28.6416 105.039 29.2861C104.57 29.9209 103.916 30.4141 103.076 30.7656C102.246 31.1172 101.328 31.293 100.322 31.293C99.4238 31.293 98.5938 31.1172 97.832 30.7656C97.0703 30.4141 96.4404 29.9014 95.9424 29.2275C95.7178 28.9248 95.5518 28.5635 95.4443 28.1436C95.3369 27.7236 95.2734 27.2256 95.2539 26.6494L97.5977 26.7959ZM109.316 31V9.36426L112.041 9.51074V19.0908C112.275 18.6123 112.642 18.1875 113.14 17.8164C113.638 17.4453 114.204 17.1621 114.839 16.9668C115.435 16.7812 116.04 16.6885 116.655 16.6885C117.837 16.6885 118.862 16.9375 119.731 17.4355C120.61 17.9238 121.274 18.6367 121.724 19.5742C122.173 20.4922 122.373 21.6006 122.324 22.8994L122.031 31H119.307L119.6 23.0752C119.629 22.3232 119.517 21.6543 119.263 21.0684C119.009 20.4824 118.638 20.0234 118.149 19.6914C117.671 19.3691 117.104 19.208 116.45 19.208C115.972 19.208 115.474 19.3057 114.956 19.501C114.438 19.6865 113.94 19.9404 113.462 20.2627C113.022 20.5654 112.676 21 112.422 21.5664C112.178 22.123 112.051 22.748 112.041 23.4414L111.895 31H109.316ZM135.625 26.7959C135.674 27.1182 135.801 27.4258 136.006 27.7188C136.211 28.002 136.465 28.2266 136.768 28.3926C137.061 28.5684 137.334 28.6953 137.588 28.7734C137.852 28.8516 138.154 28.8906 138.496 28.8906C138.77 28.8906 138.931 28.8857 138.979 28.876C139.653 28.8271 140.176 28.6514 140.547 28.3486C140.928 28.0459 141.118 27.6455 141.118 27.1475C141.118 26.6885 140.947 26.293 140.605 25.9609C140.273 25.6289 139.824 25.3994 139.258 25.2725L137.339 24.8184C136.04 24.4766 135.083 23.9785 134.468 23.3242C133.862 22.6699 133.56 21.835 133.56 20.8193L133.589 20.2627C133.647 19.6084 133.901 19.0078 134.351 18.4609C134.81 17.9141 135.405 17.4795 136.138 17.1572C136.87 16.8447 137.642 16.6885 138.452 16.6885C139.731 16.6885 140.806 16.9863 141.675 17.582C142.104 17.8652 142.441 18.2852 142.686 18.8418C142.939 19.3887 143.096 20.0381 143.154 20.79L140.693 20.6436C140.625 20.1455 140.41 19.7598 140.049 19.4863C139.688 19.2031 139.224 19.0615 138.657 19.0615C138.12 19.0615 137.632 19.1836 137.192 19.4277C136.763 19.6621 136.499 19.96 136.401 20.3213C136.343 20.5264 136.313 20.7656 136.313 21.0391C136.313 21.1953 136.353 21.3271 136.431 21.4346C136.646 21.8936 137.197 22.25 138.086 22.5039L140.151 23.0166C142.573 23.6221 143.784 24.9844 143.784 27.1035C143.784 27.9141 143.545 28.6416 143.066 29.2861C142.598 29.9209 141.943 30.4141 141.104 30.7656C140.273 31.1172 139.355 31.293 138.35 31.293C137.451 31.293 136.621 31.1172 135.859 30.7656C135.098 30.4141 134.468 29.9014 133.97 29.2275C133.745 28.9248 133.579 28.5635 133.472 28.1436C133.364 27.7236 133.301 27.2256 133.281 26.6494L135.625 26.7959ZM148.237 31V19.1494H145.864V16.9961H148.237V11.708H150.977V16.9961H154.082V19.1494H150.977V31H148.237ZM156.25 23.9834C156.25 22.5771 156.567 21.3076 157.202 20.1748C157.847 19.0322 158.721 18.1631 159.824 17.5674C160.898 16.9814 162.08 16.6885 163.369 16.6885C164.434 16.6885 165.41 16.9033 166.299 17.333C167.188 17.7627 167.847 18.3486 168.276 19.0908V16.8496H170.986V31H168.716L168.276 28.8467C167.837 29.5986 167.168 30.1943 166.27 30.6338C165.381 31.0732 164.414 31.293 163.369 31.293C162.061 31.293 160.864 30.9854 159.78 30.3701C158.696 29.7451 157.837 28.876 157.202 27.7627C156.567 26.6396 156.25 25.3799 156.25 23.9834ZM159.048 23.9541C159.048 24.8232 159.258 25.6143 159.678 26.3271C160.098 27.04 160.674 27.6016 161.406 28.0117C162.129 28.4219 162.91 28.627 163.75 28.627C164.609 28.627 165.381 28.4365 166.064 28.0557C166.748 27.665 167.285 27.1182 167.676 26.415C168.057 25.7119 168.247 24.8916 168.247 23.9541C168.247 23.0459 168.022 22.2256 167.573 21.4932C167.134 20.7607 166.548 20.2139 165.815 19.8525C165.464 19.6768 165.127 19.5498 164.805 19.4717C164.482 19.3936 164.131 19.3545 163.75 19.3545C162.891 19.3545 162.1 19.5498 161.377 19.9404C160.664 20.3311 160.098 20.873 159.678 21.5664C159.258 22.2598 159.048 23.0557 159.048 23.9541ZM175.557 31V16.9961H178.135L178.281 20.1455C178.604 19.0225 179.087 18.1973 179.731 17.6699C180.376 17.1426 181.191 16.8789 182.178 16.8789C183.438 16.8789 184.248 16.9961 184.609 17.2305L184.185 19.6328C183.911 19.4961 183.623 19.4082 183.32 19.3691C183.027 19.3203 182.627 19.2959 182.119 19.2959C181.27 19.2959 180.522 19.5889 179.878 20.1748C179.243 20.751 178.794 21.5371 178.53 22.5332C178.423 22.9336 178.354 23.3584 178.325 23.8076C178.296 24.2471 178.281 24.9453 178.281 25.9023V31H175.557Z" fill="white"/>
</svg>
